<?xml version="1.0" encoding="utf-8"?>
<!-- Generator: Adobe Illustrator 25.0.1, SVG Export Plug-In . SVG Version: 6.00 Build 0)  -->
<svg version="1.1" id="Слой_1" xmlns="http://www.w3.org/2000/svg" xmlns:xlink="http://www.w3.org/1999/xlink" x="0px" y="0px"
	 viewBox="0 0 100 22" style="enable-background:new 0 0 100 22;" xml:space="preserve">
<style type="text/css">
	.st0{fill:blue;}
</style>
<g>
	<path class="st0" d="M64.04,14.08c-0.14,0.03-0.28,0.05-0.43,0.07c-0.14,0.02-0.28,0.04-0.43,0.06c-0.13,0.02-0.26,0.06-0.38,0.1
		c-0.11,0.04-0.21,0.09-0.3,0.15c-0.08,0.06-0.14,0.13-0.19,0.22c-0.05,0.09-0.07,0.2-0.07,0.34c0,0.13,0.02,0.24,0.07,0.33
		c0.05,0.09,0.11,0.15,0.18,0.2c0.08,0.05,0.19,0.09,0.3,0.11c0.12,0.02,0.26,0.04,0.39,0.04c0.33,0,0.58-0.05,0.75-0.15
		c0.17-0.1,0.3-0.23,0.38-0.37c0.08-0.15,0.13-0.3,0.15-0.44c0.02-0.17,0.03-0.3,0.03-0.39v-0.38c-0.02,0.01-0.04,0.02-0.07,0.02
		C64.31,14.02,64.17,14.06,64.04,14.08z"/>
	<path class="st0" d="M36.04,14.08c-0.14,0.03-0.28,0.05-0.43,0.07c-0.14,0.02-0.28,0.04-0.43,0.06c-0.13,0.02-0.26,0.06-0.38,0.1
		c-0.11,0.04-0.21,0.09-0.3,0.15c-0.08,0.06-0.14,0.13-0.19,0.22c-0.05,0.08-0.07,0.2-0.07,0.34c0,0.13,0.02,0.25,0.07,0.33
		c0.05,0.09,0.11,0.15,0.19,0.2c0.08,0.05,0.19,0.09,0.3,0.11c0.12,0.02,0.26,0.04,0.39,0.04c0.33,0,0.58-0.05,0.75-0.15
		c0.17-0.1,0.3-0.23,0.38-0.37c0.08-0.15,0.13-0.3,0.15-0.44c0.02-0.16,0.03-0.29,0.03-0.39v-0.38c-0.02,0.01-0.04,0.02-0.07,0.02
		C36.3,14.02,36.17,14.06,36.04,14.08z"/>
	<path class="st0" d="M48.17,14.08c-0.14,0.03-0.28,0.05-0.43,0.07c-0.14,0.02-0.28,0.04-0.43,0.06c-0.13,0.02-0.26,0.06-0.38,0.1
		c-0.11,0.04-0.21,0.09-0.3,0.15c-0.08,0.06-0.14,0.13-0.19,0.22c-0.05,0.08-0.07,0.2-0.07,0.34c0,0.13,0.02,0.25,0.07,0.33
		c0.05,0.09,0.11,0.15,0.19,0.2c0.08,0.05,0.19,0.09,0.3,0.11c0.12,0.02,0.26,0.04,0.39,0.04c0.33,0,0.58-0.05,0.75-0.15
		c0.17-0.1,0.3-0.23,0.38-0.37c0.08-0.15,0.13-0.3,0.15-0.44c0.02-0.16,0.03-0.29,0.03-0.39v-0.38c-0.02,0.01-0.04,0.02-0.07,0.02
		C48.44,14.02,48.31,14.06,48.17,14.08z"/>
	<path class="st0" d="M28.61,10.37c-0.19-0.24-0.44-0.43-0.75-0.56c-0.32-0.13-0.71-0.2-1.18-0.2h-1.27v5.43h1.63
		c0.27,0,0.54-0.04,0.79-0.13c0.25-0.08,0.47-0.23,0.67-0.43c0.2-0.2,0.36-0.47,0.47-0.79c0.12-0.33,0.18-0.74,0.18-1.22
		c0-0.45-0.04-0.85-0.13-1.21C28.94,10.91,28.8,10.61,28.61,10.37z"/>
	<path class="st0" d="M91.64,14.08c-0.14,0.03-0.28,0.05-0.43,0.07c-0.14,0.02-0.28,0.04-0.43,0.06c-0.13,0.02-0.26,0.06-0.38,0.1
		c-0.11,0.04-0.21,0.09-0.3,0.15c-0.08,0.06-0.14,0.13-0.19,0.22c-0.05,0.09-0.07,0.2-0.07,0.34c0,0.13,0.02,0.24,0.07,0.33
		c0.05,0.09,0.11,0.15,0.18,0.2c0.08,0.05,0.19,0.09,0.3,0.11c0.12,0.02,0.26,0.04,0.39,0.04c0.33,0,0.58-0.05,0.75-0.15
		c0.17-0.1,0.3-0.23,0.38-0.37c0.08-0.15,0.13-0.3,0.15-0.44c0.02-0.17,0.03-0.3,0.03-0.39v-0.38c-0.02,0.01-0.04,0.02-0.07,0.02
		C91.91,14.02,91.78,14.06,91.64,14.08z"/>
	<path d="M30.27,8.76c-0.39-0.39-0.85-0.69-1.38-0.88c-0.52-0.19-1.1-0.29-1.7-0.29h-4.11v9.48h4.11c0.72,0,1.36-0.12,1.89-0.37
		c0.54-0.24,0.99-0.58,1.35-1.01c0.36-0.43,0.63-0.94,0.81-1.52c0.18-0.58,0.26-1.21,0.26-1.89c0-0.78-0.11-1.46-0.32-2.04
		C30.96,9.65,30.66,9.16,30.27,8.76z M28.97,13.69c-0.12,0.33-0.28,0.59-0.47,0.79c-0.2,0.2-0.42,0.34-0.67,0.43
		c-0.26,0.09-0.52,0.13-0.79,0.13h-1.63V9.61h1.27c0.47,0,0.87,0.07,1.18,0.2c0.31,0.13,0.56,0.32,0.75,0.56
		c0.19,0.24,0.33,0.54,0.41,0.89c0.09,0.36,0.13,0.76,0.13,1.21C29.16,12.95,29.09,13.36,28.97,13.69z"/>
	<path d="M38.7,16.27c-0.03-0.26-0.05-0.55-0.05-0.84v-3.45c0-0.44-0.1-0.8-0.3-1.07c-0.19-0.26-0.45-0.47-0.75-0.62
		c-0.3-0.14-0.63-0.24-0.99-0.29c-0.73-0.1-1.45-0.1-2.16,0.04c-0.38,0.08-0.73,0.21-1.03,0.38c-0.31,0.18-0.57,0.43-0.77,0.73
		c-0.2,0.31-0.32,0.69-0.35,1.15l-0.01,0.18h2.15l0.01-0.15c0.03-0.31,0.13-0.53,0.29-0.65c0.17-0.13,0.42-0.2,0.74-0.2
		c0.15,0,0.3,0.01,0.43,0.03c0.12,0.02,0.22,0.05,0.31,0.11c0.08,0.05,0.15,0.12,0.2,0.21c0.05,0.09,0.08,0.22,0.08,0.39
		c0.01,0.18-0.06,0.25-0.11,0.29c-0.1,0.08-0.24,0.15-0.42,0.19c-0.2,0.05-0.43,0.09-0.68,0.11c-0.26,0.03-0.54,0.06-0.82,0.1
		c-0.28,0.04-0.56,0.1-0.83,0.18c-0.29,0.08-0.55,0.2-0.77,0.35c-0.23,0.16-0.42,0.38-0.56,0.64c-0.15,0.27-0.22,0.61-0.22,1.01
		c0,0.36,0.06,0.69,0.19,0.95c0.13,0.27,0.3,0.5,0.53,0.68c0.22,0.18,0.48,0.31,0.78,0.39c0.29,0.08,0.6,0.12,0.93,0.12
		c0.43,0,0.85-0.06,1.25-0.19c0.31-0.1,0.6-0.25,0.85-0.45c0,0.01,0,0.01,0,0.02c0.02,0.11,0.05,0.22,0.09,0.33l0.04,0.11h2.27
		l-0.16-0.26C38.78,16.7,38.73,16.51,38.7,16.27z M36.5,14.34c0,0.09-0.01,0.22-0.03,0.39c-0.02,0.15-0.07,0.3-0.15,0.44
		c-0.08,0.14-0.21,0.26-0.38,0.37c-0.17,0.1-0.42,0.15-0.75,0.15c-0.14,0-0.27-0.01-0.39-0.04c-0.12-0.02-0.22-0.06-0.3-0.11
		c-0.08-0.05-0.14-0.11-0.19-0.2c-0.05-0.09-0.07-0.2-0.07-0.33c0-0.14,0.02-0.26,0.07-0.34c0.05-0.09,0.11-0.16,0.19-0.22
		c0.08-0.06,0.18-0.11,0.3-0.15c0.12-0.04,0.25-0.07,0.38-0.1c0.14-0.03,0.28-0.05,0.43-0.06c0.15-0.02,0.29-0.04,0.43-0.07
		c0.14-0.03,0.27-0.06,0.39-0.1c0.02-0.01,0.05-0.02,0.07-0.02V14.34z"/>
	<path d="M50.84,16.27c-0.03-0.26-0.05-0.55-0.05-0.84v-3.45c0-0.44-0.1-0.8-0.3-1.07c-0.19-0.26-0.45-0.47-0.75-0.62
		c-0.3-0.14-0.63-0.24-0.99-0.29c-0.73-0.1-1.45-0.1-2.16,0.04c-0.38,0.08-0.73,0.21-1.03,0.38c-0.31,0.18-0.57,0.43-0.77,0.73
		c-0.2,0.31-0.32,0.69-0.35,1.15l-0.01,0.18h2.15l0.01-0.15c0.03-0.31,0.13-0.53,0.29-0.65c0.17-0.13,0.42-0.2,0.74-0.2
		c0.15,0,0.3,0.01,0.43,0.03c0.12,0.02,0.22,0.05,0.31,0.11c0.08,0.05,0.15,0.12,0.2,0.21c0.05,0.09,0.08,0.22,0.08,0.39
		c0.01,0.18-0.06,0.25-0.11,0.29c-0.1,0.08-0.24,0.15-0.42,0.19c-0.2,0.05-0.43,0.09-0.68,0.11c-0.26,0.03-0.54,0.06-0.82,0.1
		c-0.28,0.04-0.56,0.1-0.83,0.18c-0.29,0.08-0.55,0.2-0.77,0.35c-0.23,0.16-0.42,0.38-0.56,0.64c-0.15,0.27-0.22,0.61-0.22,1.01
		c0,0.36,0.06,0.69,0.19,0.95c0.13,0.27,0.3,0.5,0.53,0.68c0.22,0.18,0.48,0.31,0.78,0.39c0.29,0.08,0.6,0.12,0.93,0.12
		c0.43,0,0.85-0.06,1.25-0.19c0.31-0.1,0.6-0.25,0.85-0.45c0,0.01,0,0.01,0,0.02c0.02,0.11,0.05,0.22,0.09,0.33l0.04,0.11h2.27
		l-0.16-0.26C50.92,16.7,50.87,16.51,50.84,16.27z M48.63,14.34c0,0.09-0.01,0.23-0.03,0.39c-0.02,0.15-0.07,0.3-0.15,0.44
		c-0.08,0.14-0.21,0.26-0.38,0.37c-0.17,0.1-0.42,0.15-0.75,0.15c-0.14,0-0.27-0.01-0.39-0.04c-0.12-0.02-0.22-0.06-0.3-0.11
		c-0.08-0.05-0.14-0.11-0.19-0.2c-0.05-0.09-0.07-0.2-0.07-0.33c0-0.14,0.02-0.26,0.07-0.34c0.05-0.09,0.11-0.16,0.19-0.22
		c0.08-0.06,0.18-0.11,0.3-0.15c0.12-0.04,0.25-0.07,0.38-0.1c0.14-0.03,0.28-0.05,0.43-0.06c0.15-0.02,0.29-0.04,0.43-0.07
		c0.14-0.03,0.27-0.06,0.39-0.1c0.02-0.01,0.05-0.02,0.07-0.02V14.34z"/>
	<path d="M58.4,12c-0.31-0.2-0.63-0.36-0.95-0.45c-0.3-0.09-0.55-0.15-0.72-0.19c-0.57-0.14-1.03-0.26-1.39-0.36
		c-0.34-0.09-0.61-0.18-0.8-0.27c-0.21-0.1-0.3-0.19-0.33-0.24c-0.05-0.08-0.08-0.2-0.08-0.35c0-0.16,0.03-0.29,0.1-0.39
		c0.07-0.11,0.16-0.2,0.28-0.27c0.11-0.07,0.24-0.13,0.39-0.16c0.39-0.08,0.78-0.05,1.1,0.01c0.19,0.04,0.36,0.1,0.5,0.2
		c0.14,0.09,0.25,0.21,0.33,0.36c0.09,0.16,0.14,0.36,0.15,0.61L57,10.65h2.27v-0.17c0-0.55-0.11-1.04-0.32-1.43
		c-0.21-0.39-0.5-0.72-0.87-0.97c-0.36-0.25-0.77-0.43-1.23-0.54c-0.84-0.2-1.77-0.24-2.69,0.01c-0.43,0.12-0.82,0.3-1.15,0.54
		C52.67,8.32,52.39,8.63,52.17,9c-0.21,0.37-0.32,0.81-0.32,1.31c0,0.44,0.09,0.83,0.26,1.15c0.17,0.31,0.39,0.58,0.67,0.79
		c0.27,0.21,0.58,0.38,0.91,0.5c0.33,0.13,0.67,0.23,1.01,0.32c0.34,0.09,0.67,0.18,0.99,0.26c0.31,0.07,0.6,0.16,0.85,0.26
		c0.23,0.09,0.43,0.21,0.57,0.35c0.12,0.12,0.19,0.28,0.19,0.48c0,0.19-0.05,0.35-0.14,0.47c-0.1,0.13-0.23,0.23-0.39,0.31
		c-0.16,0.08-0.34,0.13-0.53,0.16c-0.49,0.07-0.89,0.05-1.28-0.05c-0.23-0.06-0.43-0.15-0.59-0.27c-0.16-0.12-0.29-0.27-0.39-0.46
		c-0.1-0.19-0.15-0.43-0.15-0.7V13.7h-2.28l0,0.17c-0.01,0.59,0.1,1.11,0.33,1.54c0.22,0.43,0.53,0.79,0.91,1.07
		c0.38,0.28,0.82,0.48,1.31,0.61c0.49,0.13,0.99,0.19,1.51,0.19c0.64,0,1.21-0.08,1.7-0.23c0.49-0.15,0.91-0.37,1.25-0.64
		c0.34-0.28,0.6-0.61,0.77-0.99c0.17-0.38,0.26-0.79,0.26-1.23c0-0.54-0.12-1-0.35-1.35C58.99,12.49,58.72,12.2,58.4,12z"/>
	<path d="M66.7,16.27c-0.03-0.27-0.05-0.55-0.05-0.84v-3.45c0-0.44-0.1-0.8-0.3-1.07c-0.19-0.26-0.45-0.47-0.75-0.62
		c-0.3-0.14-0.63-0.24-0.99-0.29c-0.73-0.1-1.45-0.1-2.16,0.04c-0.38,0.08-0.73,0.21-1.03,0.38c-0.31,0.18-0.57,0.43-0.77,0.73
		c-0.2,0.31-0.32,0.69-0.35,1.15l-0.01,0.18h2.15l0.01-0.15c0.03-0.31,0.13-0.53,0.29-0.65c0.17-0.13,0.42-0.2,0.75-0.2
		c0.15,0,0.3,0.01,0.43,0.03c0.12,0.02,0.22,0.05,0.31,0.11c0.08,0.05,0.15,0.12,0.2,0.21c0.05,0.09,0.08,0.22,0.08,0.39
		c0.01,0.18-0.06,0.25-0.11,0.29c-0.1,0.08-0.24,0.15-0.42,0.19c-0.2,0.05-0.43,0.09-0.68,0.11c-0.26,0.03-0.54,0.06-0.82,0.1
		c-0.28,0.04-0.56,0.1-0.83,0.18c-0.29,0.08-0.55,0.2-0.77,0.35c-0.23,0.16-0.42,0.38-0.56,0.64c-0.15,0.27-0.22,0.61-0.22,1.01
		c0,0.36,0.06,0.69,0.19,0.95c0.13,0.27,0.3,0.5,0.53,0.68c0.22,0.18,0.48,0.31,0.78,0.39c0.29,0.08,0.6,0.12,0.93,0.12
		c0.43,0,0.85-0.06,1.25-0.19c0.31-0.1,0.6-0.25,0.85-0.45c0,0.01,0,0.01,0,0.02c0.02,0.11,0.05,0.22,0.09,0.33l0.04,0.11h2.27
		l-0.16-0.26C66.79,16.7,66.73,16.51,66.7,16.27z M64.5,14.34c0,0.09-0.01,0.22-0.03,0.39c-0.02,0.15-0.07,0.3-0.15,0.44
		c-0.08,0.14-0.21,0.26-0.38,0.37c-0.17,0.1-0.42,0.15-0.75,0.15c-0.14,0-0.27-0.01-0.39-0.04c-0.12-0.02-0.22-0.06-0.3-0.11
		c-0.08-0.05-0.14-0.11-0.18-0.2c-0.05-0.09-0.07-0.2-0.07-0.33c0-0.14,0.02-0.26,0.07-0.34c0.05-0.09,0.11-0.16,0.19-0.22
		c0.08-0.06,0.18-0.11,0.3-0.15c0.12-0.04,0.25-0.07,0.38-0.1c0.14-0.03,0.28-0.05,0.43-0.06c0.15-0.02,0.29-0.04,0.43-0.07
		c0.14-0.03,0.27-0.06,0.39-0.1c0.02-0.01,0.05-0.02,0.07-0.02V14.34z"/>
	<polygon points="74.75,10.11 72.12,10.11 70.06,12.24 70.06,7.59 67.91,7.59 67.91,17.07 70.06,17.07 70.06,14.69 70.09,14.32 
		72.33,17.07 74.94,17.07 71.79,13.18 	"/>
	<path d="M79.52,13.75c0,0.63-0.1,1.09-0.3,1.35c-0.19,0.25-0.5,0.38-0.94,0.38c-0.38,0-0.63-0.11-0.77-0.33
		c-0.15-0.24-0.23-0.62-0.23-1.13v-3.91h-2.15v4.24c0,0.42,0.04,0.81,0.11,1.16c0.08,0.36,0.22,0.67,0.41,0.92
		c0.2,0.26,0.47,0.46,0.81,0.6c0.33,0.14,0.75,0.2,1.26,0.2c0.41,0,0.81-0.09,1.2-0.27c0.26-0.12,0.5-0.3,0.7-0.52v0.63h2.06v-6.96
		h-2.15V13.75z"/>
	<path d="M94.46,16.81c-0.07-0.12-0.12-0.3-0.16-0.55c-0.03-0.27-0.05-0.55-0.05-0.84v-3.45c0-0.44-0.1-0.8-0.3-1.07
		c-0.19-0.26-0.45-0.47-0.75-0.62c-0.3-0.14-0.63-0.24-0.99-0.29c-0.73-0.1-1.45-0.1-2.16,0.04c-0.38,0.08-0.73,0.21-1.03,0.38
		c-0.31,0.18-0.57,0.43-0.77,0.73c-0.2,0.3-0.32,0.69-0.35,1.15l-0.01,0.18h2.15l0.01-0.15c0.03-0.31,0.13-0.53,0.29-0.65
		c0.17-0.13,0.42-0.2,0.75-0.2c0.15,0,0.3,0.01,0.43,0.03c0.12,0.02,0.22,0.05,0.31,0.11c0.08,0.05,0.15,0.12,0.2,0.21
		c0.05,0.09,0.08,0.22,0.08,0.39c0.01,0.18-0.06,0.25-0.11,0.29c-0.1,0.08-0.24,0.15-0.42,0.19c-0.2,0.05-0.43,0.09-0.68,0.11
		c-0.26,0.03-0.54,0.06-0.82,0.1c-0.28,0.04-0.56,0.1-0.83,0.18c-0.29,0.08-0.55,0.2-0.77,0.35c-0.23,0.16-0.42,0.38-0.56,0.64
		c-0.15,0.27-0.22,0.61-0.22,1.01c0,0.36,0.06,0.69,0.19,0.95c0.13,0.27,0.3,0.5,0.53,0.68c0.22,0.18,0.48,0.31,0.78,0.39
		c0.29,0.08,0.6,0.12,0.93,0.12c0.43,0,0.85-0.06,1.25-0.19c0.31-0.1,0.6-0.25,0.85-0.45c0,0.01,0,0.01,0,0.02
		c0.02,0.11,0.05,0.22,0.09,0.33l0.04,0.11h2.27L94.46,16.81z M92.1,14.34c0,0.09-0.01,0.22-0.03,0.39
		c-0.02,0.15-0.07,0.3-0.15,0.44c-0.08,0.14-0.21,0.26-0.38,0.37c-0.17,0.1-0.42,0.15-0.75,0.15c-0.14,0-0.27-0.01-0.39-0.04
		c-0.12-0.02-0.22-0.06-0.3-0.11c-0.08-0.05-0.14-0.11-0.18-0.2c-0.05-0.09-0.07-0.2-0.07-0.33c0-0.14,0.02-0.26,0.07-0.34
		c0.05-0.09,0.11-0.16,0.19-0.22c0.08-0.06,0.18-0.11,0.3-0.15c0.12-0.04,0.25-0.07,0.38-0.1c0.14-0.03,0.28-0.05,0.43-0.06
		c0.15-0.02,0.29-0.04,0.43-0.07c0.14-0.03,0.27-0.06,0.39-0.1c0.02-0.01,0.05-0.02,0.07-0.02V14.34z"/>
	<polygon points="82.95,10.03 82.95,17.07 85.1,17.07 85.1,11.47 87.41,11.47 87.41,10.03 85.1,10.03 	"/>
	<polygon points="42.78,7.59 40.62,7.59 40.62,10.03 39.41,10.03 39.41,11.47 40.62,11.47 40.62,17.07 42.78,17.07 42.78,11.47 
		44,11.47 44,10.03 42.78,10.03 	"/>
</g>
<g>
	<path d="M9.05,7.74C7.88,7.36,6.62,8,6.24,9.17c-0.38,1.17,0.26,2.43,1.43,2.81c1.17,0.38,2.43-0.26,2.81-1.43
		C10.86,9.38,10.22,8.12,9.05,7.74z"/>
	<path d="M8.18,13.53c-0.72,0.99-0.5,2.39,0.49,3.11c0.99,0.72,2.39,0.5,3.11-0.49s0.5-2.39-0.49-3.11
		C10.3,12.32,8.9,12.54,8.18,13.53z"/>
	<path d="M13.42,16.15c0.72,0.99,2.12,1.22,3.11,0.49c0.99-0.72,1.22-2.12,0.49-3.11s-2.12-1.22-3.11-0.49
		C12.92,13.76,12.7,15.16,13.42,16.15z"/>
	<path d="M14.83,6.78c0-1.23-1-2.23-2.23-2.23c-1.23,0-2.23,1-2.23,2.23s1,2.23,2.23,2.23C13.83,9.01,14.83,8.01,14.83,6.78z"/>
	<path d="M17.53,11.98c-1.17,0.38-2.43-0.26-2.81-1.43c-0.38-1.17,0.26-2.43,1.43-2.81S18.58,8,18.96,9.17
		C19.34,10.34,18.7,11.6,17.53,11.98z"/>
</g>
</svg>
